<?xml version="1.0" encoding="UTF-8"?>
<svg id="Capa_1" xmlns="http://www.w3.org/2000/svg" version="1.1" xmlns:xodm="http://www.corel.com/coreldraw/odm/2003" viewBox="0 0 1641 512">
  <!-- Generator: Adobe Illustrator 29.7.1, SVG Export Plug-In . SVG Version: 2.1.1 Build 8)  -->
  <g id="_2401623507648">
    <path d="M325.02,215.1c-1.75-1.76-3.83-3.18-6.15-4.15-2.23-.93-4.68-1.44-7.24-1.44s-5.02.51-7.25,1.44c-2.31.97-4.4,2.39-6.14,4.15-1.58,1.59-2.87,3.47-3.82,5.54-.83,1.83-1.39,3.83-1.61,5.93h37.64c-.22-2.1-.78-4.1-1.62-5.93-.94-2.07-2.24-3.95-3.81-5.54ZM311.63,203.88c3.32,0,6.49.67,9.39,1.88,3,1.26,5.71,3.1,7.97,5.39,1.47,1.48,2.76,3.16,3.82,4.98.87,1.49,1.59,3.08,2.14,4.75.5-.62,1.04-1.21,1.61-1.77.83-.81,1.74-1.57,2.71-2.26,2.03-1.44,4.36-2.59,6.87-3.37,2.43-.75,5.04-1.16,7.74-1.16s5.32.41,7.74,1.16c2.52.78,4.84,1.93,6.88,3.37,2.09,1.49,3.89,3.29,5.3,5.32,1.38,2,2.39,4.22,2.93,6.59l.8,3.44h-90.37l-.03-1.34c-.02-.87.05-1.86,0-1.96l-.06-.12v-.12c0-3.35.66-6.55,1.86-9.46,1.24-3.03,3.07-5.77,5.33-8.05,2.27-2.29,4.97-4.13,7.98-5.39,2.89-1.21,6.06-1.88,9.39-1.88h0ZM353.89,217.94c-2.13,0-4.17.32-6.05.9-1.95.6-3.75,1.48-5.31,2.59-1.12.79-2.12,1.7-2.98,2.7-.66.77-1.23,1.58-1.7,2.44h32.09c-.48-.86-1.05-1.67-1.7-2.44-.86-1-1.87-1.91-2.98-2.7-1.57-1.11-3.36-1.99-5.32-2.59-1.88-.58-3.91-.9-6.05-.9h0ZM287.62,319.01h-16.37v-23.33h16.91v23.33h-.54ZM287.62,357.6h-16.37v-23.34h16.91v23.34h-.54ZM287.62,396.19h-16.37v-23.34h16.91v23.34h-.54ZM246.9,475.94h-16.37v-23.34h16.92v23.34h-.55ZM221.49,475.94h-16.37v-23.34h16.91v23.34h-.54ZM196.07,475.94h-16.37v-23.34h16.91v23.34h-.54ZM170.65,475.94h-16.36v-23.34h16.91v23.34h-.55ZM93.68,78.06h28.76v-28.18h-28.76v28.18ZM128.07,78.06h28.76v-28.18h-28.76v28.18ZM154.26,44.25l-29-26.66-29,26.66h58ZM173.9,83.68h-97.27v15.26c0,3.74,1.52,7.13,3.98,9.59s5.85,3.98,9.58,3.98h70.14c3.73,0,7.12-1.53,9.58-3.99,2.46-2.45,3.99-5.85,3.99-9.58v-15.26h0ZM87.94,123.45l.36-5.41c-4.78-.47-9.04-2.71-12.14-6.03-3.21-3.44-5.17-8.05-5.17-13.07v-20.88h17.06v-28.18h-8.03c-1.32,0-2.18-.75-2.56-1.69-.14-.36-.21-.74-.21-1.12s.07-.77.21-1.13c.38-.94,1.24-1.68,2.56-1.68h7.92l34.5-31.71V2.85c0-1.33.74-2.19,1.68-2.56.36-.15.75-.22,1.13-.22s.77.07,1.13.22c.94.37,1.68,1.23,1.68,2.56v9.7l34.49,31.71h5.68c1.32,0,2.18.74,2.56,1.68.14.36.21.74.21,1.12s-.07.77-.21,1.13c-.34.83-1.04,1.5-2.12,1.65l.05.04h-6.27v28.18h17.06v6.49c3.66-.58,7.27-1.09,10.89-1.52,3.83-.45,7.69-.81,11.59-1.05,20.85-1.27,41.91.56,62.27,5.32,20.32,4.75,39.96,12.41,58.03,22.8,17.03,9.78,32.66,21.92,46.4,35.91,13.73,13.99,25.58,29.83,35.06,47.02,9.81,17.82,17,37.01,21.41,56.8,4.42,19.86,6.06,40.34,4.76,60.68-2.58,40.53-16.53,78.75-39.27,110.8-22.66,31.94-54.04,57.76-91.59,73.65-18.87,7.99-38.81,13.18-59.08,15.52-20.37,2.34-41.07,1.82-61.35-1.63-19.56-3.32-38.57-9.44-56.4-18-17.93-8.61-34.69-19.7-49.63-32.91-14.82-13.1-27.74-28.2-38.41-44.76-10.64-16.52-19.04-34.51-24.83-53.41C2.97,338.91-.15,317.07,0,295.26c.15-21.79,3.56-43.57,10.24-64.33,6.93-21.54,17.26-41.76,30.4-59.92,13.14-18.14,29.09-34.24,47.29-47.55h0ZM154.34,118.14h-60.41l-4.35,65.28,66.86-33.72-2.1-31.56ZM264.85,128.62c-4.6-5.6-11.03-9.67-18.52-11.18-6.56-1.32-13.29-.45-19.23,2.18-5.98,2.64-11.17,7.07-14.63,12.81-3.47,5.78-4.95,12.48-4.47,19.03.48,6.52,2.89,12.89,7.19,18.06,4.32,5.2,10.08,8.8,16.35,10.52,6.27,1.73,13.06,1.59,19.44-.66,6.33-2.24,11.59-6.42,15.3-11.7,3.77-5.37,5.94-11.87,6.01-18.63-.08-7.65-2.83-14.81-7.44-20.43ZM269.4,497.95v-69.47c-1.12.01-2.25-.04-3.36-.1-.96-.04-1.91-.09-2.84-.09H53.21c26.04,31.84,60.01,54.54,97.41,66.66,37.65,12.2,78.77,13.69,118.78,3h0ZM48.38,422.15l.12.17c1.76-.01,3.43-.04,5.09-.08,1.85-.03,3.7-.07,5.56-.07l-.59-43c-2.28-1.43-4.5-2.94-6.65-4.52-1.94-1.41-3.84-2.88-5.7-4.42l.73,50.01,1.44,1.91h0ZM186.03,393.22l-.24-11.94c-1.86,1.08-3.75,2.12-5.66,3.1-2.04,1.06-4.13,2.06-6.23,2.99l.47,34.95h12.22l-.56-29.1ZM71.25,422.29l6.1.03-.45-33.69c-2.21-.91-4.38-1.88-6.51-2.91-1.98-.96-3.91-1.96-5.81-3.01.1,8.97.23,17.95.36,26.93l.18,12.58,6.13.07h0ZM83.33,422.32h12.23l-.38-27.77c-2.12-.5-4.25-1.06-6.36-1.68-1.99-.59-3.97-1.22-5.92-1.92.11,6.94.2,13.89.29,20.85,0,0,.14,10.52.14,10.52ZM101.54,422.32h12.23c-.05-5.54-.14-11.1-.22-16.64l-.12-8.23c-2.07-.17-4.16-.4-6.25-.68-2.01-.27-4.02-.59-6.01-.96l.37,26.51h0ZM119.75,422.32h12.24l-.34-24.68c-2.03.13-4.07.2-6.13.23-2.03.03-4.07.01-6.1-.07.09,5.5.16,11,.23,16.51l.1,8.01h0ZM137.96,422.32h12.23l-.37-27.15c-1.98.42-3.98.79-6,1.12-2.06.33-4.13.61-6.2.84.05,5.66.14,11.33.22,17l.12,8.19ZM156.17,422.32h12.23l-.44-32.5c-1.96.75-3.91,1.44-5.87,2.07-2.09.67-4.18,1.29-6.31,1.86l.39,28.57ZM140.65,390.72c7.63-1.07,15.17-2.89,22.46-5.45,1.54-.55,3.05-1.12,4.54-1.72,1.42-.57,2.84-1.18,4.25-1.81,2.66-7.34,3.68-15.11,3.01-22.73-.66-7.58-2.99-15-6.99-21.68-6.55-10.94-16.95-18.72-28.62-22.44-11.6-3.69-24.47-3.37-36.09,1.83-5.53,2.47-10.56,5.88-14.87,10.03-4.3,4.15-7.89,9.05-10.56,14.47-3.08,6.27-4.75,13.07-5.05,19.93-.31,6.94.77,13.95,3.17,20.55,6.28,2.83,12.72,5.06,19.3,6.7,6.66,1.67,13.49,2.74,20.46,3.22.29-.06.59-.08.89-.07.29.02.59.08.88.17,7.75.42,15.53.09,23.22-1h0ZM192.57,422.32h12.25l-.74-54.14c-1.85,1.62-3.76,3.17-5.69,4.66-2.17,1.66-4.4,3.25-6.7,4.77l.88,44.71ZM210.79,422.32h12.24l-.82-74.06c-1.7,2.39-3.48,4.69-5.35,6.92-2.17,2.6-4.46,5.11-6.88,7.53l.81,59.61h0ZM18.84,324.19c4.36,10.29,10.35,19.91,17.7,28.37,4.62,5.33,9.74,10.2,15.25,14.54,5.25,4.15,10.86,7.82,16.75,10.99-1.86-7.25-2.29-14.81-1.31-22.17,1.02-7.68,3.59-15.17,7.68-21.91,7.37-12.15,18.85-20.68,31.74-24.76,12.91-4.08,27.23-3.7,40.27,1.98,12.98,5.66,22.83,15.84,28.52,27.96,5.61,11.92,7.2,25.72,3.82,38.93,17.07-9.17,31.3-22.34,41.38-38.16,9.94-15.6,15.86-33.8,16.51-53.29-5.51.15-11.05.08-16.59.02-3.01-.04-6.02-.07-9.2-.07H10.63l.09,2.47c.05.98.11,1.99.19,3.01.89,11.07,3.62,21.92,7.93,32.09h0ZM27.73,351.17l.53,38.82c2,3.94,4.12,7.82,6.35,11.61,1.98,3.36,4.06,6.68,6.23,9.93l-.68-46.65c-2.43-2.29-4.77-4.69-7-7.19-1.89-2.1-3.7-4.28-5.43-6.52ZM10.23,318.13c-1.84-5.6-3.25-11.36-4.19-17.19.29,11.91,1.59,23.8,3.88,35.49,2.7,13.76,6.78,27.25,12.19,40.18l-.47-34.19c-4.78-7.62-8.61-15.79-11.41-24.29h0ZM411.74,367.14c-.93.22-1.86.39-2.77.52-1.06.16-2.12.26-3.15.32v13.73c.98-2.18,1.93-4.37,2.83-6.57,1.07-2.62,2.1-5.28,3.09-8ZM422.32,324.76c-.5-1.91-1.08-3.84-1.7-5.8-.68-2.08-1.41-4.19-2.2-6.29-2.03-5.44-4.43-10.95-7.01-16.28-2.68-5.58-5.56-10.96-8.41-15.86-2.85,4.9-5.72,10.28-8.41,15.86-2.57,5.33-4.97,10.84-7,16.28-1.82,4.85-3.34,9.64-4.44,14.19-1,4.14-1.64,8.09-1.83,11.7,1.23,3.19,2.39,6.42,3.47,9.66,1.07,3.23,2.06,6.5,2.94,9.8,2.05,1.69,4.5,2.79,7.09,3.47,2.66.7,5.49.95,8.18.95,1.77,0,3.68-.11,5.59-.41,1.82-.28,3.67-.76,5.42-1.48,1.89-5.8,3.54-11.7,4.93-17.66,1.38-5.97,2.52-12.03,3.38-18.13h0ZM323.22,348.62l.77-2.28c.65-1.9,1.34-3.82,2.06-5.76,3.25-8.68,7.13-17.48,11.28-25.91,4.61-9.36,9.55-18.28,14.33-26.11.24-.41.57-.73.94-.96.43-.26.94-.4,1.44-.41.51,0,1.02.13,1.46.39.37.22.71.54.96.96,3.8,6.23,7.71,13.16,11.47,20.44,3.2,6.22,6.31,12.7,9.15,19.25.51-2.41,1.14-4.9,1.87-7.42.96-3.3,2.1-6.69,3.37-10.1,2.32-6.2,5.1-12.48,8.05-18.49,3.29-6.67,6.81-13.03,10.22-18.62.24-.41.57-.73.94-.95.43-.27.94-.41,1.44-.41.51-.01,1.01.12,1.46.39.38.22.71.54.96.95,3.89,6.39,7.61,13.15,10.96,20.08,2.77,5.72,5.29,11.56,7.44,17.39,1.15-15.31.6-30.58-1.61-45.59-2.33-15.87-6.51-31.47-12.5-46.58-3.49-8.49-7.25-16.51-11.49-24.27-4.25-7.75-8.99-15.24-14.45-22.67-11.28-15.34-24.69-29.12-39.7-40.87-14.96-11.71-31.5-21.41-49.07-28.63-8.34-3.43-16.89-6.3-25.59-8.6-8.61-2.28-17.35-4-26.16-5.18v22.38c9.71.75,18.34,5.21,24.6,11.91,6.41,6.86,10.35,16.09,10.44,26.11-.1,10.01-4.04,19.25-10.46,26.12-6.25,6.69-14.86,11.15-24.58,11.89v77.35h79.84l.16,84.2h0ZM356.89,419.69v30.08c8.75-8.09,16.76-16.9,23.97-26.28,7.32-9.54,13.8-19.69,19.38-30.32h-.05v-25.18c-1.79-.11-3.67-.34-5.54-.75-1.72-.38-3.45-.91-5.12-1.63.58,2.86,1.05,5.66,1.37,8.35.35,2.93.54,5.74.54,8.43,0,11.67-3.03,20.82-8.98,27.15-5.8,6.18-14.36,9.66-25.57,10.15h0ZM354.07,414.12c10.53,0,18.5-2.63,23.81-7.93,5.25-5.26,7.93-13.18,7.93-23.8,0-5.43-.82-11.47-2.26-17.86-1.57-7.01-3.9-14.45-6.72-21.98-2.96-7.92-6.47-15.95-10.23-23.71-4-8.25-8.3-16.2-12.53-23.38-4.22,7.18-8.52,15.13-12.52,23.38-3.76,7.76-7.27,15.79-10.23,23.71-1.94,5.19-3.65,10.34-5.04,15.33-1.3,4.66-2.33,9.19-3,13.49l.04,21.18c1.69,7.95,5.51,13.34,10.82,16.73,5.34,3.42,12.2,4.84,19.93,4.84h0ZM74.76,208.27c2.49-.64,5.02-1.04,7.61-1.14l5.06-75.96c-13.3,10.2-25.23,21.93-35.6,34.9-10.66,13.33-19.69,27.98-26.87,43.65l2.18,1.27c5.45,3.21,10.99,6.48,17.31,7,6.81.55,12.79-2.31,18.76-5.16,1.26-.61,2.53-1.21,3.7-1.74,2.59-1.17,5.2-2.14,7.85-2.82h0ZM157.06,208.75c1.09-.23,2.19-.43,3.28-.58l-3.49-52.38-67.71,34.14-1.16,17.48.83.12c5.33.85,10.27,2.89,15.19,4.93,1.91.79,3.83,1.58,5.82,2.32,3.57,1.32,7.13,2.27,10.73,2.68,3.6.4,7.24.26,10.98-.57,4.32-.97,8.48-2.51,12.64-4.05,3.01-1.12,6.02-2.23,9.11-3.14,1.26-.37,2.52-.69,3.78-.95h0ZM220.3,213.38c5.38-2.85,10.9-5.77,16.94-6.03v-20.29c-6.04-.48-11.89-2.38-17.03-5.49-5.18-3.12-9.65-7.49-12.89-12.86-4.13-6.87-5.83-14.74-5.25-22.44.6-7.76,3.52-15.36,8.62-21.58,3.3-4.03,7.42-7.25,11.99-9.56,4.53-2.29,9.51-3.68,14.56-4.09v-23.12c-9.46-.99-19.78-1.39-30.03-1.05-9.52.31-18.99,1.25-27.69,2.93v8.29c0,5.27-2.16,10.08-5.63,13.55-3.48,3.48-8.28,5.64-13.56,5.64h-.36l6.04,90.45c1.66-.02,3.32.04,5,.2,1.84.18,3.7.48,5.56.89,4.11.91,8.08,2.27,12.05,3.62,3.2,1.1,6.42,2.2,9.68,3.05,1.72.45,3.45.83,5.21,1.08,1.74.25,3.51.37,5.27.31,2.01-.07,3.93-.44,5.79-1.02,1.87-.59,3.68-1.39,5.46-2.33l.27-.15h0ZM62.55,236.29c5.84-2.78,11.64-5.53,18.27-6.06l1.12-16.68-1.15.07c-5.32.47-10.16,2.82-14.95,5.16-1.76.85-3.52,1.71-5.28,2.46-3.51,1.5-7.11,2.58-10.78,3.03-3.68.45-7.42.26-11.19-.76-5.25-1.42-9.89-4.12-14.53-6.81l-1.7-.99c-1.84,4.35-3.53,8.77-5.07,13.25l.05.06c3.39,1.42,6.57,3.25,9.74,5.08,2.85,1.65,5.71,3.29,8.72,4.64,1.95.87,3.96,1.54,6.02,1.95,1.92.39,3.88.56,5.88.45,2.04-.1,4.05-.52,6.01-1.12,1.97-.61,3.89-1.41,5.76-2.27l3.08-1.46h0ZM155.59,232.25c2.08-.51,4.18-.89,6.28-1.14l-1.1-16.46c-2.35.4-4.67,1-6.97,1.71-2.49.77-4.97,1.67-7.43,2.58-3.61,1.33-7.25,2.67-10.97,3.67-3.73,1-7.56,1.67-11.5,1.66-3.9,0-7.65-.7-11.3-1.76-3.63-1.06-7.18-2.47-10.7-3.92-2.41-.99-4.87-2-7.37-2.86-2.29-.78-4.62-1.43-6.99-1.81l-1.09,16.4c2.87.3,5.68.97,8.43,1.83,2.9.91,5.76,2.05,8.57,3.2,3.64,1.5,7.31,3,11.07,4.06,3.72,1.04,7.54,1.66,11.52,1.41,6.2-.4,12.11-2.61,17.94-4.79,1.65-.62,3.3-1.23,4.9-1.79,2.22-.77,4.46-1.45,6.71-1.99h0ZM221.23,236.04c5.13-2.66,10.29-5.33,16.01-5.58v-16.67c-4.39.19-8.5,2.38-12.59,4.57-2.9,1.55-5.79,3.09-8.8,3.95-4.2,1.2-8.47,1.28-12.68.74-4.19-.54-8.33-1.7-12.31-3l-4.14-1.4c-5.9-2.04-11.88-4.1-18.09-4.48l-1.38-.05h-.81l1.11,16.7c.82,0,1.65.05,2.46.11,1,.07,2.01.19,3.01.34,5.4.82,10.53,2.57,15.67,4.31,2.53.86,5.07,1.73,7.62,2.47,3.91,1.15,7.76,1.86,11.54,1.82,3.77-.04,7.5-.84,11.19-2.71l2.19-1.12h0ZM76.99,253.96c.75-.17,1.52-.31,2.28-.43l1.11-16.63c-.9.08-1.8.21-2.7.39-1.12.23-2.24.52-3.35.9-3.05,1.03-5.96,2.44-8.86,3.85-3.83,1.86-7.66,3.72-11.86,4.74-3.74.91-7.44,1.04-11.05.55-3.92-.54-7.74-1.81-11.43-3.62-2.35-1.15-4.6-2.46-6.85-3.77-2.95-1.72-5.91-3.45-9.05-4.78-.73,2.37-1.42,4.77-2.07,7.19-.66,2.45-1.28,4.91-1.85,7.37,3.43.55,6.65,1.68,9.76,3.1,3.26,1.5,6.4,3.33,9.55,5.18,3.46,2.02,7,3.88,10.7,5,3.66,1.11,7.48,1.49,11.53.59,4.23-.96,8.13-2.88,12.03-4.8,3.07-1.5,6.14-3.01,9.39-4.08.89-.29,1.8-.54,2.72-.75h0ZM154.24,255.61c3-.85,6.05-1.49,9.15-1.77l-1.09-16.35c-5.55.7-10.9,2.69-16.18,4.65l-3.41,1.26c-3.85,1.38-7.75,2.57-11.71,3.27-3.99.7-8.05.91-12.19.34-5.89-.82-11.29-3.02-16.69-5.23-1.84-.75-3.69-1.51-5.59-2.22-1.85-.69-3.7-1.28-5.55-1.74-1.65-.41-3.31-.72-4.97-.89l-1.09,16.26c2.16.05,4.32.31,6.44.74,2.31.46,4.62,1.13,6.89,1.95,2.25.82,4.48,1.76,6.7,2.69,5.21,2.19,10.44,4.39,16.04,5.07,8.21.99,16.07-1.95,23.67-4.79l.23-.09c3.09-1.15,6.2-2.27,9.35-3.15h0ZM233.15,253.77c1.35-.25,2.72-.38,4.09-.38v-16.48c-4.41.17-8.55,2.38-12.67,4.57-3.23,1.73-6.46,3.45-9.87,4.24-4.42,1.03-8.83.92-13.17.2-4.32-.72-8.57-2.04-12.69-3.43l-2.02-.69c-6.14-2.09-12.39-4.23-18.84-4.53l1.09,16.49.43.03c6.7.54,12.97,2.69,19.24,4.83,1.67.57,3.35,1.14,5.03,1.68,3.89,1.25,7.84,2.26,11.77,2.51,3.91.24,7.8-.27,11.59-2.04,1.52-.71,3-1.53,4.48-2.34,2.19-1.2,4.39-2.41,6.75-3.31,1.55-.59,3.16-1.05,4.79-1.35h0ZM177.65,261.89c-2.68-.73-5.4-1.29-8.14-1.55l1.35,20.3h66.38v-20.79c-4.7-.09-9.09,2.26-13.47,4.61-3.57,1.91-7.14,3.82-10.95,4.5-4.62.82-9.15.46-13.58-.47-4.43-.92-8.74-2.41-12.99-3.87-2.84-.98-5.71-1.95-8.6-2.73h0ZM317.09,478.65v-208.26h-73.87c0,26.58.42,53.02.83,79.46l.41,27.55.62,44.91h27.31c.81,0,1.56.34,2.1.88.54.55.88,1.3.88,2.11v70.98c7.18-2.15,14.24-4.69,21.14-7.6,7.02-2.96,13.89-6.31,20.58-10.04h0ZM323.31,421.97v53.08c4.85-2.93,9.55-6.04,14.09-9.33,4.79-3.45,9.41-7.1,13.85-10.92v-35.11c-6.06-.27-11.97-1.46-17.16-4-4.16-2.04-7.85-4.96-10.76-8.99l-.02,15.27ZM83.08,280.64h82.08l-1.35-20.36-1.53.17c-5.51.74-10.73,2.71-15.94,4.68-2.54.96-5.08,1.92-7.67,2.74-4.08,1.29-8.2,2.11-12.33,2.3-4.14.2-8.3-.22-12.48-1.39-3.71-1.04-7.25-2.52-10.79-4-3.76-1.57-7.52-3.15-11.45-4.17-1.25-.32-2.52-.58-3.8-.76-1.11-.15-2.22-.24-3.33-.26l-1.41,21.05h0ZM6.57,280.64h70.88l1.37-20.44c-1.58.36-3.11.86-4.61,1.44-1.73.67-3.44,1.46-5.12,2.27l-.92.45c-6.7,3.26-13.52,6.57-21.27,6.25-3.71-.16-7.2-1.07-10.53-2.41-3.3-1.33-6.47-3.08-9.56-4.9l-.38-.22c-5.23-3.08-10.5-6.19-16.49-7.01-.81,4.08-1.5,8.17-2.06,12.27-.56,4.06-1,8.15-1.31,12.3ZM239.11,422.32l-1.44-104.48c-1.05,3.18-2.24,6.31-3.57,9.38-1.76,4.09-3.78,8.08-6.02,11.94l.93,83.16h10.1Z"/>
    <polygon points="491.17 389.46 529.5 389.46 529.5 277.25 614.99 389.46 648.02 389.46 648.02 212.95 609.69 212.95 609.69 321.63 526.98 212.95 491.17 212.95 491.17 389.46"/>
    <path id="_1" d="M739.04,392.49c24.46,0,42.61-9.58,55.22-25.21l-21.94-19.42c-10.59,9.83-19.92,13.87-32.77,13.87-17.15,0-29.25-9.08-33.04-26.48h94.05c.26-3.53.51-7.06.51-10.08,0-38.33-20.68-73.38-65.81-73.38-39.34,0-66.82,31.77-66.82,70.35,0,41.86,30.01,70.35,70.6,70.35h0ZM706.01,311.29c3.03-17.4,13.36-28.75,29.25-28.75s26.22,11.6,28.49,28.75h-57.74Z"/>
    <path id="_2" d="M882.02,392.49c26.98,0,42.1-10.34,55.22-24.71l-22.45-22.69c-9.32,8.82-18.15,14.37-31.01,14.37-20.93,0-34.29-16.64-34.29-37.32s13.62-37.32,32.78-37.32c15.13,0,23.2,5.55,31.52,13.37l22.44-22.7c-12.61-14.12-28.24-23.7-53.71-23.7-41.35,0-70.85,31.77-70.85,70.35s29.75,70.35,70.35,70.35h0Z"/>
    <path id="_3" d="M1013.38,392.49c42.11,0,73.38-31.52,73.38-70.35s-31.02-70.35-72.87-70.35-73.38,31.52-73.38,70.35,31.02,70.35,72.87,70.35h0ZM1013.89,359.45c-21.18,0-35.56-17.4-35.56-37.32s13.12-37.32,35.05-37.32,35.55,17.4,35.55,37.32-13.11,37.32-35.04,37.32Z"/>
    <path id="_4" d="M1166.95,392.49c26.98,0,42.11-10.34,55.22-24.71l-22.44-22.69c-9.33,8.82-18.16,14.37-31.02,14.37-20.92,0-34.29-16.64-34.29-37.32s13.62-37.32,32.78-37.32c15.13,0,23.2,5.55,31.52,13.37l22.44-22.7c-12.61-14.12-28.24-23.7-53.71-23.7-41.35,0-70.85,31.77-70.85,70.35s29.75,70.35,70.35,70.35h0Z"/>
    <path id="_5" d="M1235.78,389.46h38.33v-75.39c0-18.15,9.33-27.48,23.95-27.48s23.2,9.33,23.2,27.48v75.39h38.33v-87.49c0-31.01-16.9-50.18-45.89-50.18-19.42,0-30.77,10.34-39.59,21.69v-68.08h-38.33v184.07h0Z"/>
    <path id="_6" d="M1445.58,392.49c24.45,0,42.61-9.58,55.22-25.21l-21.94-19.42c-10.59,9.83-19.92,13.87-32.78,13.87-17.15,0-29.25-9.08-33.03-26.48h94.05c.25-3.53.5-7.06.5-10.08,0-38.33-20.67-73.38-65.81-73.38-39.33,0-66.81,31.77-66.81,70.35,0,41.86,30,70.35,70.6,70.35h0ZM1412.55,311.29c3.02-17.4,13.36-28.75,29.24-28.75s26.23,11.6,28.5,28.75h-57.74Z"/>
    <path id="_7" d="M1563.08,391.99c18.66,0,31.52-6.81,40.85-17.15v14.62h37.07v-78.41c0-18.16-4.54-33.03-14.63-43.12-9.58-9.58-24.71-15.13-45.64-15.13-22.94,0-37.56,4.29-52.44,10.84l9.58,29.25c12.36-4.54,22.69-7.31,37.32-7.31,19.16,0,28.99,8.83,28.99,24.71v2.27c-9.58-3.28-19.41-5.55-33.03-5.55-32.02,0-54.46,13.62-54.46,43.12,0,27.23,20.93,41.86,46.39,41.86h0ZM1574.68,365.5c-12.35,0-20.92-6.05-20.92-16.39,0-12.61,10.08-19.16,26.47-19.16,9.33,0,17.9,2.01,24.46,5.04v6.81c0,13.87-12.1,23.7-30.01,23.7h0Z"/>
    <polygon points="491.85 178.07 498.97 178.07 498.97 125.68 522.57 160.3 522.94 160.3 546.54 125.58 546.54 178.07 553.85 178.07 553.85 113.28 546.45 113.28 522.85 148.64 499.25 113.28 491.85 113.28 491.85 178.07"/>
    <path id="_1_0" d="M585.22,179.08c8.24,0,13.14-4.16,16.38-9.34v8.33h7.04v-47.85h-7.04v27.39c0,8.98-6.2,15-14.34,15s-13.23-5.56-13.23-14.44v-27.95h-7.13v29.71c0,11.38,6.75,19.15,18.32,19.15Z"/>
    <path id="_2_1" d="M621.33,178.07h7.12v-27.4c0-8.97,6.11-14.99,14.35-14.99s13.23,5.55,13.23,14.44v27.95h7.13v-29.71c0-11.38-6.76-19.16-18.33-19.16-8.23,0-13.23,4.17-16.38,9.35v-8.33h-7.12v47.85h0Z"/>
    <path id="_3_2" d="M675.19,119.75h8.14v-7.86h-8.14v7.86ZM675.65,178.07h7.12v-47.85h-7.12v47.85h0Z"/>
    <path id="_4_3" d="M717.57,179.18c8.98,0,14.72-3.89,19.53-9.26l-4.72-4.35c-3.8,4.08-8.33,7.22-14.44,7.22-9.99,0-17.58-8.23-17.58-18.6s7.4-18.69,17.12-18.69c6.48,0,10.92,3.05,14.71,7.03l4.54-4.81c-4.44-4.72-10.09-8.52-19.16-8.52-13.97,0-24.52,11.48-24.52,24.99s10.55,24.99,24.52,24.99h0Z"/>
    <path id="_5_4" d="M745.71,119.75h8.14v-7.86h-8.14v7.86ZM746.17,178.07h7.12v-47.85h-7.12v47.85h0Z"/>
    <path id="_6_5" d="M766.53,192.87h7.12v-23.96c3.71,5.36,9.44,10.17,18.33,10.17,11.57,0,22.86-9.25,22.86-24.89s-11.39-24.99-22.86-24.99c-8.79,0-14.44,4.91-18.33,10.65v-9.63h-7.12v62.65h0ZM790.68,172.7c-8.88,0-17.3-7.4-17.3-18.51s8.42-18.6,17.3-18.6,16.85,7.22,16.85,18.51-7.59,18.6-16.85,18.6Z"/>
    <path id="_7_6" d="M1130.96,179.08c8.79,0,14.44-4.9,18.32-10.64v9.63h7.13v-67.56h-7.13v28.87c-3.7-5.36-9.44-10.18-18.32-10.18-11.48,0-22.86,9.26-22.86,24.9s11.38,24.98,22.86,24.98h0ZM1132.25,172.7c-9.06,0-16.84-7.22-16.84-18.51s7.59-18.6,16.84-18.6,17.31,7.4,17.31,18.42-8.42,18.69-17.31,18.69Z"/>
    <path id="_8" d="M1173.25,157.06h37.95c.09-1.11.09-1.85.09-2.5,0-14.07-8.15-25.36-22.31-25.36-13.23,0-22.95,11.11-22.95,24.99,0,14.9,10.74,24.99,23.88,24.99,9.07,0,14.9-3.61,19.71-8.98l-4.44-3.98c-3.89,4.07-8.51,6.76-15.08,6.76-8.43,0-15.83-5.83-16.85-15.92h0ZM1173.25,151.32c1.02-9.25,7.31-16.1,15.55-16.1,9.44,0,14.44,7.4,15.27,16.1h-30.82Z"/>
    <path id="_9" d="M838.91,179.08c8.42,0,13.88-3.88,17.21-8.14v7.13h7.03v-29.25c0-6.11-1.66-10.73-4.99-14.06-3.43-3.43-8.7-5.28-15.46-5.28s-12.12,1.67-17.4,4.07l2.13,5.83c4.44-2.03,8.89-3.42,14.53-3.42,8.98,0,14.16,4.44,14.16,12.96v1.48c-4.26-1.21-8.51-2.04-14.62-2.04-12.12,0-20.45,5.37-20.45,15.64s8.88,15.08,17.86,15.08h0ZM840.3,173.35c-6.48,0-12.03-3.52-12.03-9.53s5.09-9.81,13.97-9.81c5.83,0,10.46,1.01,13.97,2.03v4.44c0,7.59-7.12,12.87-15.91,12.87h0Z"/>
    <polygon id="_10" points="875.56 178.07 882.68 178.07 882.68 110.5 875.56 110.5 875.56 178.07"/>
    <path id="_11" d="M896.1,119.75h8.14v-7.86h-8.14v7.86ZM896.56,178.07h7.13v-47.85h-7.13v47.85h0Z"/>
    <path id="_12" d="M937.01,179.08c8.79,0,14.43-4.9,18.32-10.64v9.63h7.13v-67.56h-7.13v28.87c-3.7-5.36-9.44-10.18-18.32-10.18-11.48,0-22.86,9.26-22.86,24.9s11.38,24.98,22.86,24.98h0ZM938.3,172.7c-9.07,0-16.84-7.22-16.84-18.51s7.59-18.6,16.84-18.6,17.31,7.4,17.31,18.42-8.42,18.69-17.31,18.69Z"/>
    <path id="_13" d="M989.29,179.08c8.42,0,13.88-3.88,17.22-8.14v7.13h7.03v-29.25c0-6.11-1.67-10.73-5-14.06-3.42-3.43-8.7-5.28-15.45-5.28s-12.13,1.67-17.4,4.07l2.13,5.83c4.44-2.03,8.88-3.42,14.53-3.42,8.97,0,14.16,4.44,14.16,12.96v1.48c-4.26-1.21-8.52-2.04-14.63-2.04-12.12,0-20.45,5.37-20.45,15.64s8.89,15.08,17.86,15.08h0ZM990.68,173.35c-6.48,0-12.03-3.52-12.03-9.53s5.09-9.81,13.97-9.81c5.83,0,10.46,1.01,13.98,2.03v4.44c0,7.59-7.13,12.87-15.92,12.87h0Z"/>
    <path id="_14" d="M1045.38,179.08c8.79,0,14.43-4.9,18.32-10.64v9.63h7.12v-67.56h-7.12v28.87c-3.7-5.36-9.44-10.18-18.32-10.18-11.48,0-22.86,9.26-22.86,24.9s11.38,24.98,22.86,24.98h0ZM1046.67,172.7c-9.07,0-16.84-7.22-16.84-18.51s7.59-18.6,16.84-18.6,17.31,7.4,17.31,18.42-8.42,18.69-17.31,18.69Z"/>
    <path d="M491.85,487.46h7.31v-22.85h15.73c13.79,0,25.45-7.22,25.45-21.2,0-12.95-9.63-20.73-24.25-20.73h-24.24v64.78h0ZM499.16,457.94v-28.5h16.38c10.45,0,17.4,4.81,17.4,14.07,0,8.7-7.04,14.43-17.77,14.43h-16.01,0Z"/>
    <path id="_1_7" d="M546.91,487.46h7.13v-19.06c0-14.44,8.51-21.93,18.97-21.93h.55v-7.68c-9.07-.37-16.01,5.36-19.52,13.32v-12.49h-7.13v47.84h0Z"/>
    <path id="_2_8" d="M598.65,488.58c14.44,0,25.08-11.48,25.08-24.99s-10.55-24.99-24.89-24.99-24.99,11.48-24.99,24.99,10.46,24.99,24.8,24.99ZM598.84,482.19c-10.09,0-17.68-8.33-17.68-18.6s7.13-18.7,17.49-18.7,17.77,8.43,17.77,18.7-7.22,18.6-17.58,18.6Z"/>
    <polygon id="_3_9" points="644.28 487.84 650.57 487.84 671.39 439.62 663.71 439.62 647.52 479.32 631.41 439.62 623.55 439.62 644.28 487.84"/>
    <path id="_4_10" d="M677.22,429.16h8.15v-7.86h-8.15v7.86ZM677.69,487.46h7.12v-47.84h-7.12v47.84Z"/>
    <path id="_5_11" d="M695.82,487.46h7.13v-27.39c0-8.98,6.11-14.99,14.34-14.99s13.24,5.55,13.24,14.44v27.94h7.12v-29.7c0-11.38-6.75-19.16-18.32-19.16-8.24,0-13.23,4.17-16.38,9.35v-8.33h-7.13v47.84Z"/>
    <path id="_6_12" d="M768.84,488.58c8.98,0,14.72-3.89,19.53-9.26l-4.72-4.35c-3.8,4.07-8.33,7.22-14.44,7.22-9.99,0-17.58-8.24-17.58-18.6s7.4-18.7,17.12-18.7c6.48,0,10.92,3.06,14.71,7.04l4.54-4.81c-4.44-4.72-10.09-8.52-19.16-8.52-13.97,0-24.52,11.48-24.52,24.99s10.55,24.99,24.52,24.99h0Z"/>
    <path id="_7_13" d="M794.75,429.16h8.15v-7.86h-8.15v7.86ZM795.22,487.46h7.12v-47.84h-7.12v47.84Z"/>
    <path id="_8_14" d="M827.62,488.48c8.42,0,13.88-3.88,17.21-8.14v7.12h7.03v-29.24c0-6.11-1.66-10.73-4.99-14.07-3.43-3.42-8.7-5.27-15.46-5.27s-12.12,1.66-17.4,4.07l2.13,5.83c4.44-2.03,8.89-3.42,14.53-3.42,8.98,0,14.16,4.44,14.16,12.95v1.48c-4.26-1.2-8.51-2.03-14.62-2.03-12.12,0-20.45,5.37-20.45,15.64s8.88,15.08,17.86,15.08ZM829.01,482.75c-6.48,0-12.03-3.52-12.03-9.54s5.08-9.81,13.97-9.81c5.83,0,10.46,1.02,13.97,2.04v4.44c0,7.59-7.12,12.87-15.91,12.87h0Z"/>
    <path id="_9_15" d="M911.16,488.48c8.79,0,14.43-4.9,18.32-10.64v9.62h7.13v-67.55h-7.13v28.87c-3.7-5.37-9.44-10.18-18.32-10.18-11.48,0-22.86,9.26-22.86,24.9s11.38,24.98,22.86,24.98ZM912.45,482.1c-9.07,0-16.84-7.22-16.84-18.51s7.59-18.6,16.84-18.6,17.31,7.4,17.31,18.41-8.42,18.7-17.31,18.7Z"/>
    <path id="_10_16" d="M951.23,466.46h37.94c.09-1.11.09-1.85.09-2.5,0-14.07-8.14-25.36-22.3-25.36-13.23,0-22.95,11.11-22.95,24.99,0,14.9,10.73,24.99,23.88,24.99,9.07,0,14.9-3.61,19.71-8.98l-4.44-3.98c-3.89,4.07-8.52,6.75-15.09,6.75-8.42,0-15.82-5.83-16.84-15.91h0ZM951.23,460.72c1.02-9.25,7.31-16.1,15.55-16.1,9.43,0,14.43,7.4,15.27,16.1h-30.82Z"/>
    <path id="_11_17" d="M1027.08,487.46h28.79c14.16,0,23.5-6.57,23.5-17.67,0-9.07-6.2-13.51-13.88-15.83,5.09-2.22,10.27-6.57,10.27-14.99,0-4.35-1.48-7.77-4.16-10.55-3.61-3.7-9.53-5.74-16.94-5.74h-27.58v64.78h0ZM1034.3,451.56v-22.31h19.72c9.25,0,14.34,4.17,14.34,10.55,0,7.78-6.11,11.76-14.9,11.76h-19.16,0ZM1034.3,480.89v-22.85h20.46c11.29,0,17.21,4.07,17.21,11.1,0,7.4-6.11,11.75-15.92,11.75h-21.75,0Z"/>
    <path id="_12_18" d="M1104.74,488.48c8.24,0,13.14-4.16,16.38-9.34v8.32h7.03v-47.84h-7.03v27.39c0,8.98-6.2,14.99-14.34,14.99s-13.24-5.55-13.24-14.43v-27.95h-7.12v29.71c0,11.38,6.75,19.15,18.32,19.15Z"/>
    <path id="_13_19" d="M1142.87,466.46h37.94c.09-1.11.09-1.85.09-2.5,0-14.07-8.14-25.36-22.3-25.36-13.23,0-22.95,11.11-22.95,24.99,0,14.9,10.73,24.99,23.88,24.99,9.07,0,14.9-3.61,19.71-8.98l-4.44-3.98c-3.89,4.07-8.52,6.75-15.09,6.75-8.42,0-15.82-5.83-16.84-15.91h0ZM1142.87,460.72c1.02-9.25,7.31-16.1,15.55-16.1,9.44,0,14.43,7.4,15.27,16.1h-30.82Z"/>
    <path id="_14_20" d="M1187.84,487.46h7.13v-27.39c0-8.98,6.11-14.99,14.35-14.99s13.23,5.55,13.23,14.44v27.94h7.13v-29.7c0-11.38-6.76-19.16-18.33-19.16-8.24,0-13.23,4.17-16.38,9.35v-8.33h-7.13v47.84Z"/>
    <path id="_15" d="M1261.14,488.58c14.44,0,25.08-11.48,25.08-24.99s-10.55-24.99-24.89-24.99-24.99,11.48-24.99,24.99,10.46,24.99,24.8,24.99ZM1261.33,482.19c-10.09,0-17.68-8.33-17.68-18.6s7.13-18.7,17.49-18.7,17.77,8.43,17.77,18.7-7.22,18.6-17.58,18.6Z"/>
    <path id="_16" d="M1309.37,488.39c9.53,0,17.02-5.27,17.02-14.34s-7.95-11.66-15.36-13.89c-6.38-1.94-12.31-3.7-12.31-8.23,0-4.17,3.61-7.13,9.26-7.13,4.63,0,9.72,1.76,14.16,4.63l3.24-5.37c-4.91-3.24-11.39-5.27-17.22-5.27-9.44,0-16.28,5.46-16.28,13.69,0,8.98,8.32,11.57,15.82,13.7,6.29,1.76,11.94,3.61,11.94,8.42s-4.17,7.77-9.9,7.77-11.39-2.22-16.57-6.1l-3.61,5.09c5.37,4.35,12.96,7.03,19.81,7.03Z"/>
    <path id="_17" d="M1359.4,487.46h7.5l7.68-17.12h35.26l7.59,17.12h7.86l-29.52-65.24h-6.85l-29.52,65.24ZM1377.45,463.77l14.81-33.03,14.71,33.03h-29.52Z"/>
    <path id="_18" d="M1431.5,429.16h8.14v-7.86h-8.14v7.86ZM1431.96,487.46h7.12v-47.84h-7.12v47.84Z"/>
    <path id="_19" d="M1450.1,487.46h7.12v-19.06c0-14.44,8.52-21.93,18.97-21.93h.56v-7.68c-9.07-.37-16.01,5.36-19.53,13.32v-12.49h-7.12v47.84h0Z"/>
    <path id="_20" d="M1484.25,466.46h37.94c.09-1.11.09-1.85.09-2.5,0-14.07-8.14-25.36-22.3-25.36-13.24,0-22.95,11.11-22.95,24.99,0,14.9,10.73,24.99,23.87,24.99,9.07,0,14.9-3.61,19.72-8.98l-4.45-3.98c-3.88,4.07-8.51,6.75-15.08,6.75-8.42,0-15.83-5.83-16.84-15.91h0ZM1484.25,460.72c1.01-9.25,7.31-16.1,15.54-16.1,9.44,0,14.44,7.4,15.27,16.1h-30.81Z"/>
    <path id="_21" d="M1545.06,488.39c9.53,0,17.03-5.27,17.03-14.34s-7.96-11.66-15.37-13.89c-6.38-1.94-12.3-3.7-12.3-8.23,0-4.17,3.6-7.13,9.25-7.13,4.63,0,9.72,1.76,14.16,4.63l3.24-5.37c-4.91-3.24-11.39-5.27-17.22-5.27-9.43,0-16.28,5.46-16.28,13.69,0,8.98,8.33,11.57,15.82,13.7,6.29,1.76,11.94,3.61,11.94,8.42s-4.16,7.77-9.9,7.77-11.38-2.22-16.57-6.1l-3.61,5.09c5.37,4.35,12.96,7.03,19.81,7.03Z"/>
  </g>
</svg>